<svg enable-background="new 0 0 64 64" height="64" viewBox="0 0 64 64" width="64" xmlns="http://www.w3.org/2000/svg"><path d="m45.414 34.586c-.78-.781-2.048-.781-2.828 0l-1.586 1.586-3.172-3.172 7-7h3.172c7.851 0 12-4.841 12-14 0-.693-.359-1.337-.949-1.701-.589-.365-1.326-.398-1.946-.088l-6.71 3.355-1.961-1.961 3.355-6.71c.31-.62.277-1.356-.088-1.946-.364-.59-1.008-.949-1.701-.949-9.159 0-14 4.149-14 12v3.171l-7 7-11.172-11.171 1.586-1.586c.436-.436.646-1.047.571-1.658s-.428-1.154-.956-1.471l-10-6c-.786-.473-1.794-.348-2.443.301l-2 2c-.649.649-.773 1.656-.301 2.443l6 10c.317.528.859.881 1.471.956.081.01.163.015.244.015.527 0 1.037-.208 1.414-.586l1.586-1.586 11.172 11.172-23.586 23.586c-.22.219-.385.487-.483.782l-2 6c-.239.719-.052 1.511.483 2.046l2 2c.381.381.892.586 1.414.586.211 0 .425-.034.632-.103l6-2c.295-.098.562-.264.782-.483l23.586-23.586 3.172 3.172-1.586 1.586c-.781.781-.781 2.047 0 2.828l18 18c.39.391.902.586 1.414.586s1.024-.195 1.414-.586l6-6c.781-.781.781-2.047 0-2.828zm-33.017-21.812-3.566-5.943 5.943 3.566zm-3.478 43.478-4.379 1.46-.252-.252 1.46-4.379 33.666-33.667c.375-.375.586-.884.586-1.414v-4c0-3.385.87-6.835 6.644-7.76l-2.433 4.866c-.385.77-.234 1.7.375 2.309l4 4c.609.609 1.54.76 2.309.375l4.866-2.433c-.926 5.773-4.376 6.643-7.761 6.643h-4c-.53 0-1.039.211-1.414.586zm47.081.919-15.171-15.171 3.171-3.171 15.171 15.171z"/></svg>